<svg width="71" height="76" viewBox="0 0 71 76" fill="none" xmlns="http://www.w3.org/2000/svg">
<g clip-path="url(#clip0_113_54)">
<path d="M37.6993 71.9579L37.3265 46.6329C37.2768 43.065 39.762 38.7485 42.8684 37.0019L64.9114 24.6762C68.0178 22.9297 70.5775 24.4267 70.6272 27.9947L71 53.3197C71.0497 56.8877 68.5646 61.2041 65.4581 62.9507L43.4399 75.2764C40.3087 76.998 37.749 75.5259 37.6993 71.9579Z" fill="#00AEEF"/>
<path d="M33.3007 71.9579L33.6734 46.6329C33.7231 43.065 31.238 38.7485 28.1316 37.0019L6.11341 24.6762C3.007 22.9297 0.447323 24.4267 0.39762 27.9947L3.10189e-07 53.3197C-0.0497022 56.8877 2.43542 61.2041 5.54183 62.9507L27.5849 75.2764C30.6664 77.0229 33.251 75.5259 33.3007 71.9579Z" fill="#EC008C"/>
<path d="M8.07658 14.3716L29.722 1.37228C32.7787 -0.449126 37.7241 -0.449126 40.7808 1.37228L62.4263 14.3716C65.483 16.218 65.483 19.1871 62.4263 21.0085L40.7808 34.0079C37.7241 35.8293 32.7787 35.8293 29.722 34.0079L8.07658 21.0085C5.01988 19.1622 5.01988 16.193 8.07658 14.3716Z" fill="#A6CE39"/>
</g>
<defs>
<clipPath id="clip0_113_54">
<rect width="71" height="76" fill="white"/>
</clipPath>
</defs>
</svg>
