<svg width="179" height="76" viewBox="0 0 179 76" fill="none" xmlns="http://www.w3.org/2000/svg">
<g clip-path="url(#clip0_1_45)">
<path d="M37.6993 71.9579L37.3266 46.6329C37.2769 43.065 39.762 38.7485 42.8684 37.0019L64.9114 24.6762C68.0179 22.9297 70.5775 24.4267 70.6272 27.9947L71 53.3197C71.0497 56.8877 68.5646 61.2042 65.4582 62.9507L43.44 75.2764C40.3087 76.998 37.749 75.5259 37.6993 71.9579Z" fill="#00AEEF"/>
<path d="M33.3007 71.9579L33.6734 46.6329C33.7231 43.065 31.238 38.7485 28.1316 37.0019L6.11341 24.6762C3.007 22.9297 0.447323 24.4267 0.39762 27.9947L3.10247e-07 53.3197C-0.0497022 56.8877 2.43542 61.2042 5.54183 62.9507L27.5849 75.2764C30.6664 77.0229 33.251 75.5259 33.3007 71.9579Z" fill="#EC008C"/>
<path d="M8.07665 14.3716L29.7221 1.37228C32.7788 -0.449126 37.7242 -0.449126 40.7809 1.37228L62.4263 14.3716C65.483 16.218 65.483 19.1871 62.4263 21.0085L40.7809 34.0079C37.7242 35.8293 32.7788 35.8293 29.7221 34.0079L8.07665 21.0085C5.01994 19.1622 5.01994 16.193 8.07665 14.3716Z" fill="#A6CE39"/>
</g>
<path d="M88.425 44.65C88.425 46.2 87.8 47.525 86.55 48.625C85.3167 49.725 83.8083 50.275 82.025 50.275C81.1917 50.275 80.3917 50.175 79.625 49.975C78.8583 49.7583 78.3 49.55 77.95 49.35L77.425 49.025L78.475 46.1C78.9917 46.5 79.6333 46.8667 80.4 47.2C81.1833 47.5333 81.9083 47.7 82.575 47.7C83.2583 47.7 83.8667 47.4917 84.4 47.075C84.9333 46.6417 85.2 46.1167 85.2 45.5C85.2 43.9833 84.1833 43.0583 82.15 42.725L78.825 42.175V33.9L83.125 34.2L88.2 33.925L87.65 37.375L81.225 36.8V39.725L83.95 40.2C85.35 40.45 86.4417 40.975 87.225 41.775C88.025 42.575 88.425 43.5333 88.425 44.65ZM96.3076 50.275C95.1243 50.275 93.416 50.1833 91.1826 50L91.4826 43.925L91.1826 32.75H97.8576C100.108 32.75 101.866 33.425 103.133 34.775C104.399 36.125 105.033 38 105.033 40.4C105.033 43.4333 104.249 45.8417 102.683 47.625C101.116 49.3917 98.991 50.275 96.3076 50.275ZM96.9576 35.45C95.8576 35.45 95.0826 35.4583 94.6326 35.475L94.3826 43.5L94.5576 47.55C95.9576 47.65 96.8993 47.7 97.3826 47.7C98.6993 47.7 99.7326 47.1667 100.483 46.1C101.249 45.0333 101.633 43.4833 101.633 41.45C101.633 39.4167 101.258 37.9083 100.508 36.925C99.7743 35.9417 98.591 35.45 96.9576 35.45ZM118.892 42.2H119.142L122.792 32.7L126.242 32.8L126.342 43.55L126.817 50H123.442L123.567 43.5L123.292 36.925L120.292 45.2L117.217 45.35L114.417 36.925L114.192 43.5L114.367 50H111.267L111.617 43.925L111.767 33.2L115.742 32.575L118.892 42.2ZM163.931 47.45C164.415 47.45 164.923 47.325 165.456 47.075C165.99 46.825 166.406 46.575 166.706 46.325L167.156 45.95L168.306 47.35C168.14 47.6333 167.881 47.9583 167.531 48.325C167.181 48.6917 166.823 49.0083 166.456 49.275C166.106 49.525 165.631 49.7583 165.031 49.975C164.448 50.175 163.84 50.275 163.206 50.275C161.856 50.275 160.756 49.7667 159.906 48.75C159.056 47.7167 158.631 46.3917 158.631 44.775C158.631 42.7417 159.223 40.9583 160.406 39.425C161.59 37.8917 162.973 37.125 164.556 37.125C165.773 37.125 166.715 37.4667 167.381 38.15C168.065 38.8333 168.406 39.7917 168.406 41.025C168.406 41.7583 168.281 42.5917 168.031 43.525L167.531 44.05L161.281 44.625C161.565 46.5083 162.448 47.45 163.931 47.45ZM163.931 39.7C163.198 39.7 162.581 40 162.081 40.6C161.581 41.1833 161.29 41.9333 161.206 42.85L165.456 42.325C165.506 41.9417 165.531 41.625 165.531 41.375C165.531 40.2583 164.998 39.7 163.931 39.7ZM174.364 47.675C175.23 47.675 175.664 47.2917 175.664 46.525C175.664 46.2583 175.472 46.0083 175.089 45.775C174.722 45.5417 174.264 45.3083 173.714 45.075C173.18 44.8417 172.639 44.5833 172.089 44.3C171.555 44 171.097 43.5917 170.714 43.075C170.347 42.5583 170.164 41.9667 170.164 41.3C170.164 40.1833 170.655 39.2083 171.639 38.375C172.622 37.5417 173.755 37.125 175.039 37.125C175.639 37.125 176.222 37.2 176.789 37.35C177.372 37.4833 177.93 37.7 178.464 38L176.789 41.05C176.672 40.95 176.522 40.825 176.339 40.675C176.155 40.525 175.805 40.3333 175.289 40.1C174.789 39.85 174.339 39.725 173.939 39.725C173.555 39.725 173.255 39.8167 173.039 40C172.839 40.1667 172.739 40.4083 172.739 40.725C172.739 41.025 173.022 41.3333 173.589 41.65C174.172 41.95 174.805 42.2333 175.489 42.5C176.172 42.75 176.797 43.175 177.364 43.775C177.947 44.3583 178.239 45.0583 178.239 45.875C178.239 47.0417 177.755 48.0667 176.789 48.95C175.839 49.8333 174.739 50.275 173.489 50.275C172.689 50.275 171.939 50.1 171.239 49.75C170.555 49.4 170.064 49.05 169.764 48.7L169.314 48.175L171.289 45.875C171.389 46.0083 171.53 46.175 171.714 46.375C171.897 46.575 172.255 46.8417 172.789 47.175C173.339 47.5083 173.864 47.675 174.364 47.675Z" fill="white"/>
<path d="M129.018 44.775C129.018 42.6417 129.593 40.8333 130.743 39.35C131.893 37.8667 133.235 37.125 134.768 37.125C136.318 37.125 137.518 37.625 138.368 38.625C139.235 39.625 139.668 40.95 139.668 42.6C139.668 44.8 139.11 46.6333 137.993 48.1C136.893 49.55 135.502 50.275 133.818 50.275C132.435 50.275 131.285 49.7583 130.368 48.725C129.468 47.675 129.018 46.3583 129.018 44.775ZM136.868 43.9C136.868 41.4833 136.043 40.275 134.393 40.275C132.677 40.275 131.818 41.4083 131.818 43.675C131.818 44.8583 132.06 45.7833 132.543 46.45C133.027 47.1167 133.66 47.45 134.443 47.45C135.243 47.45 135.843 47.15 136.243 46.55C136.66 45.9333 136.868 45.05 136.868 43.9Z" fill="#A6CE39"/>
<path d="M146.079 46.875H146.404L147.229 43.45L148.579 37.275L151.679 37.65L149.804 43.85L148.229 49.7L143.954 50.075L142.479 44L140.679 37.925L144.079 37.3L145.154 42.8L146.079 46.875Z" fill="#EC008C"/>
<path d="M156.678 37.275L156.378 43.5L156.653 49.375L153.303 50L153.603 43.925L153.328 37.9L156.678 37.275ZM153.153 33.625C153.153 33.0583 153.37 32.5583 153.803 32.125C154.236 31.675 154.736 31.45 155.303 31.45C155.87 31.45 156.303 31.6083 156.603 31.925C156.903 32.225 157.053 32.6833 157.053 33.3C157.053 33.9167 156.836 34.45 156.403 34.9C155.986 35.3333 155.495 35.55 154.928 35.55C154.378 35.55 153.945 35.3667 153.628 35C153.311 34.6333 153.153 34.175 153.153 33.625Z" fill="#00AEEF"/>
<defs>
<clipPath id="clip0_1_45">
<rect width="71" height="76" fill="white"/>
</clipPath>
</defs>
</svg>
